<?xml version="1.0" encoding="iso-8859-1"?>
<!-- Generator: Adobe Illustrator 19.0.0, SVG Export Plug-In . SVG Version: 6.00 Build 0)  -->
<svg version="1.1" id="Capa_1" xmlns="http://www.w3.org/2000/svg" xmlns:xlink="http://www.w3.org/1999/xlink" x="0px" y="0px"
	 viewBox="0 0 512 512" style="enable-background:new 0 0 512 512;" xml:space="preserve">
<g>
	<path style="fill:#424C59;" d="M189.849,0L189.849,0c-13.85,0-25.078,11.227-25.078,25.078v461.845
		c0,13.85,11.227,25.078,25.078,25.078l0,0c13.85,0,25.078-11.227,25.078-25.078V25.078C214.927,11.227,203.699,0,189.849,0z"/>
	<path style="fill:#424C59;" d="M329.34,0L329.34,0c-13.85,0-25.078,11.227-25.078,25.078v172.689
		c0,13.85,11.227,25.078,25.078,25.078l0,0c13.85,0,25.078-11.227,25.078-25.078V25.078C354.417,11.227,343.19,0,329.34,0z"/>
	<path style="fill:#424C59;" d="M51.297,0L51.297,0c-13.85,0-25.078,11.227-25.078,25.078v461.845
		c0,13.85,11.227,25.078,25.078,25.078l0,0c13.85,0,25.078-11.227,25.078-25.078V25.078C76.373,11.227,65.146,0,51.297,0z"/>
</g>
<g>
	<circle style="fill:#D8A32E;" cx="329.508" cy="197.977" r="50.552"/>
	<circle style="fill:#D8A32E;" cx="189.272" cy="108.116" r="50.552"/>
	<circle style="fill:#D8A32E;" cx="51.388" cy="366.038" r="50.552"/>
</g>
<g>
	<circle style="fill:#FCC63F;" cx="51.388" cy="366.038" r="35.746"/>
	<circle style="fill:#FCC63F;" cx="189.272" cy="108.116" r="35.746"/>
	<circle style="fill:#FCC63F;" cx="329.508" cy="197.977" r="35.746"/>
</g>
<path style="fill:#FFE2C5;" d="M252.391,308.233c14.299-7.934,32.319-2.775,40.244,11.526c9.886,17.817,11.1,26.643,11.1,26.643
	V207.306c0-7.153,2.9-13.635,7.595-18.332c4.697-4.697,11.178-7.596,18.332-7.596c14.312,0,25.917,11.599,25.927,25.909v91.802
	c0-14.32,11.609-25.929,25.929-25.929l0,0c14.32,0,25.929,11.609,25.929,25.929v6.611l0,0c0-14.32,11.609-25.929,25.929-25.929l0,0
	c14.32,0,25.929,11.609,25.929,25.929v25.929c0-14.32,11.609-25.929,25.929-25.929l0,0c14.32,0,25.929,11.609,25.929,25.929v59.803
	c0,55.759-35.767,120.564-99.086,120.564c0,0-45.159,0-77.23,0c-85.792,0-86.361-118.792-86.361-118.792s0.019-30.948-7.621-44.728
	C232.933,334.186,238.092,316.167,252.391,308.233z"/>
<g>
	<path style="fill:#E5C4A5;" d="M316.16,394.148c-6.775,0.311-12.424-5.139-12.424-11.921v-174.92
		c0-7.158,2.905-13.636,7.596-18.327c4.702-4.702,11.18-7.596,18.338-7.596c4.336,0,8.432,1.066,12.016,2.957
		c-2.341,1.212-4.472,2.79-6.322,4.639c-4.692,4.692-7.596,11.17-7.596,18.328V382.22c0,6.337-4.953,11.603-11.284,11.913
		C316.378,394.138,316.269,394.143,316.16,394.148z"/>
	<path style="fill:#E5C4A5;" d="M368.014,351.348c-6.775,0.311-12.423-5.139-12.423-11.921V299.09
		c0-7.158,2.905-13.636,7.596-18.328c4.702-4.702,11.18-7.596,18.338-7.596c4.336,0,8.432,1.066,12.016,2.957
		c-2.341,1.212-4.472,2.79-6.322,4.639c-4.692,4.692-7.596,11.17-7.596,18.328v40.33c0,6.337-4.953,11.603-11.284,11.913
		C368.231,351.338,368.122,351.343,368.014,351.348z"/>
	<path style="fill:#E5C4A5;" d="M419.872,342.285c-6.775,0.311-12.424-5.139-12.424-11.921v-24.664
		c0-7.158,2.905-13.636,7.596-18.328c4.702-4.702,11.18-7.596,18.338-7.596c4.336,0,8.432,1.066,12.016,2.957
		c-2.341,1.212-4.472,2.79-6.322,4.639c-4.692,4.692-7.596,11.17-7.596,18.328v24.655c0,6.337-4.953,11.603-11.284,11.913
		C420.089,342.274,419.98,342.279,419.872,342.285z"/>
	<path style="fill:#E5C4A5;" d="M471.729,352.539c-6.775,0.311-12.424-5.139-12.424-11.921v-8.989
		c0-7.158,2.905-13.636,7.596-18.328c4.702-4.702,11.18-7.596,18.338-7.596c4.336,0,8.432,1.066,12.016,2.957
		c-2.341,1.212-4.472,2.79-6.322,4.639c-4.692,4.692-7.596,11.17-7.596,18.328v8.981c0,6.337-4.953,11.603-11.284,11.913
		C471.946,352.529,471.838,352.534,471.729,352.539z"/>
	<path style="fill:#E5C4A5;" d="M358.886,511.999h-24.033c-85.797,0-86.361-118.794-86.361-118.794
		c0-0.167-0.01-30.992-7.628-44.732c-7.931-14.284-2.769-32.308,11.525-40.239c8.443-4.681,18.192-4.807,26.384-1.17
		c-0.794,0.355-1.578,0.742-2.351,1.17c-14.294,7.931-19.456,25.955-11.525,40.239c7.617,13.74,7.628,44.565,7.628,44.732
		C272.526,393.204,273.09,511.999,358.886,511.999z"/>
</g>
<g>
</g>
<g>
</g>
<g>
</g>
<g>
</g>
<g>
</g>
<g>
</g>
<g>
</g>
<g>
</g>
<g>
</g>
<g>
</g>
<g>
</g>
<g>
</g>
<g>
</g>
<g>
</g>
<g>
</g>
</svg>
