<?xml version="1.0" encoding="UTF-8"?>
<svg width="18px" height="18px" viewBox="0 0 18 18" version="1.1" xmlns="http://www.w3.org/2000/svg" xmlns:xlink="http://www.w3.org/1999/xlink">
    <!-- Generator: Sketch 53.2 (72643) - https://sketchapp.com -->
    <title>Untitled 2</title>
    <desc>Created with Sketch.</desc>
    <g id="Page-1" stroke="none" stroke-width="1" fill="none" fill-rule="evenodd">
        <g id="menu-icon" fill="#81B240" fill-rule="nonzero">
            <path d="M17.1,0 L0.9,0 C0.396,0 -5.68434189e-14,0.396 -5.68434189e-14,0.9 L-5.68434189e-14,17.1 C-5.68434189e-14,17.604 0.396,18 0.9,18 L17.1,18 C17.604,18 18,17.604 18,17.1 L18,0.9 C18,0.396 17.604,-1.2490009e-15 17.1,0 Z M5.90075684,4.11630249 L12.8976746,4.11630249 L12.8976746,5.3522644 L7.2671814,5.3522644 L7.2671814,8.41470337 L12.2178955,8.41470337 L12.2178955,9.61633301 L7.2671814,9.61633301 L7.2671814,14.203125 L5.90075684,14.203125 L5.90075684,4.11630249 Z" id="Shape"></path>
        </g>
    </g>
</svg>