<?xml version="1.0" encoding="UTF-8"?>
<svg width="16px" height="18px" viewBox="0 0 16 18" version="1.1" xmlns="http://www.w3.org/2000/svg" xmlns:xlink="http://www.w3.org/1999/xlink">
    <!-- Generator: Sketch 52.5 (67469) - http://www.bohemiancoding.com/sketch -->
    <title>Slice 1</title>
    <desc>Created with Sketch.</desc>
    <g id="Page-1" stroke="none" stroke-width="1" fill="none" fill-rule="evenodd">
        <g id="menu-icon-2" fill="#81B241">
            <g id="menu-icon">
                <circle id="Oval" cx="6.71747368" cy="12.2492632" r="1"></circle>
                <circle id="Oval" cx="6.71747368" cy="5.08968421" r="1"></circle>
                <circle id="Oval" cx="12.6122105" cy="2.34694737" r="1"></circle>
                <circle id="Oval" cx="12.3242105" cy="9.31873684" r="1.66905263"></circle>
                <path d="M14.4176842,3.43326316 C14.4176842,3.43326316 14.3907368,3.41726316 14.3402105,3.38778947 C14.3351579,3.38442105 14.3301053,3.38189474 14.3250526,3.37852632 C14.0850526,3.24210526 13.9267368,3.45094737 13.9267368,3.45094737 C13.9208421,3.45684211 13.9157895,3.46357895 13.9098947,3.46947368 C13.9031579,3.47705263 13.8955789,3.48463158 13.8888421,3.49221053 C13.5722105,3.82568421 13.1250526,4.03368421 12.6290526,4.03368421 C12.2955789,4.03368421 11.9848421,3.93684211 11.7212632,3.77347368 C11.7212632,3.77347368 11.7204211,3.77431579 11.7204211,3.77431579 L11.6757895,3.74568421 C11.6715789,3.74315789 11.6673684,3.74147368 11.664,3.73810526 C11.6395789,3.72294737 11.3566316,3.55536842 11.0273684,3.70863158 L8.64168421,4.82105263 L8.57684211,4.85136842 C8.46821053,4.91789474 8.46063158,5.02231579 8.46063158,5.02231579 C8.46063158,5.2 8.432,5.37094737 8.38231579,5.53178947 L8.384,5.53178947 C8.384,5.53178947 8.31663158,5.74063158 8.41347368,5.81221053 L10.2736842,7.18315789 L10.2955789,7.2 C10.2955789,7.2 10.4842105,7.31789474 10.6181053,7.21515789 C10.6223158,7.21178947 10.6256842,7.21094737 10.6298947,7.20757895 C11.0938947,6.83284211 11.6816842,6.60547368 12.3242105,6.60547368 C13.8231579,6.60547368 15.0383158,7.82063158 15.0383158,9.31957895 C15.0383158,10.8185263 13.8231579,12.0336842 12.3242105,12.0336842 C11.4778947,12.0336842 10.7233684,11.6454737 10.2256842,11.0374737 C10.2248421,11.0366316 10.224,11.0357895 10.2231579,11.0341053 C10.0126316,10.8042105 9.76336842,10.9423158 9.76336842,10.9423158 L8.65263158,11.5562105 L8.56336842,11.6058947 C8.56336842,11.6058947 8.41347368,11.744 8.43705263,11.9865263 C8.44378947,12.0227368 8.44884211,12.0505263 8.44968421,12.0589474 C8.45726316,12.1221053 8.46063158,12.1869474 8.46063158,12.2517895 C8.46063158,13.2143158 7.68084211,13.9932632 6.71831579,13.9932632 C5.75663158,13.9932632 4.97684211,13.2134737 4.97684211,12.2517895 C4.97684211,11.2901053 5.75663158,10.5103158 6.71831579,10.5103158 C6.99789474,10.5103158 7.25810526,10.5802105 7.49136842,10.6964211 C7.51578947,10.704 7.54610526,10.7191579 7.58736842,10.7452632 C7.86442105,10.9195789 8.12210526,10.8210526 8.12210526,10.8210526 L8.12884211,10.8176842 L8.15915789,10.8008421 L9.45263158,10.0842105 C9.64631579,9.97726316 9.62863158,9.62357895 9.62863158,9.62357895 L9.62357895,9.57557895 C9.62357895,9.57557895 9.62610526,9.57642105 9.62694737,9.57642105 C9.61852632,9.49136842 9.61094737,9.40715789 9.61094737,9.32042105 C9.61094737,8.93978947 9.69010526,8.57852632 9.83157895,8.25010526 C9.83663158,8.23747368 9.84168421,8.22484211 9.84757895,8.20968421 C9.91831579,8.03536842 9.76336842,7.89810526 9.76336842,7.89810526 L7.91831579,6.54821053 C7.76505263,6.43621053 7.61010526,6.51873684 7.61010526,6.51873684 L7.61010526,6.51789474 C7.34905263,6.67452632 7.04505263,6.76631579 6.71831579,6.76631579 C5.75663158,6.76631579 4.97684211,5.98652632 4.97684211,5.024 C4.97684211,4.06231579 5.75663158,3.28252632 6.71831579,3.28252632 C7.23621053,3.28252632 7.70021053,3.50905263 8.01852632,3.86694737 C8.01852632,3.86694737 8.16589474,4.04042105 8.36547368,3.94694737 L10.5498947,2.92294737 L10.6071579,2.896 C10.9069474,2.75536842 10.8867368,2.29305263 10.8867368,2.29305263 C10.8867368,2.10526316 10.9162105,1.92421053 10.9717895,1.75494737 C10.9768421,1.73810526 10.9844211,1.72294737 10.9894737,1.70610526 L10.9886316,1.70526316 C10.9886316,1.70526316 11.0989474,1.488 10.8303158,1.33305263 C10.7284211,1.27410526 10.6349474,1.22610526 10.5793684,1.18821053 C10.3570526,1.05936842 10.1364211,0.932210526 9.92252632,0.809263158 C7.93010526,-0.333473684 6.43115789,0.809263158 6.43115789,0.809263158 C6.43115789,0.809263158 3.49642105,2.49347368 1.81305263,3.46610526 C0.129684211,4.43957895 0.330105263,6.09178947 0.330105263,6.09178947 L0.330105263,6.29473684 L0.322526316,6.29473684 L0.326736842,8.88926316 L0.322526316,11.4829474 L0.330105263,11.4829474 L0.330105263,11.6858947 C0.330105263,11.6858947 0.129684211,13.3389474 1.81305263,14.3115789 C3.49726316,15.2842105 6.43115789,16.9684211 6.43115789,16.9684211 C6.43115789,16.9684211 7.92926316,18.1111579 9.92252632,16.9684211 C11.9149474,15.8256842 14.4168421,14.3427368 14.4168421,14.3427368 C14.4168421,14.3427368 15.9924211,13.6016842 15.9924211,11.7322105 C15.9924211,11.6454737 15.9924211,11.5637895 15.9924211,11.4829474 L15.9924211,9.33810526 L15.9924211,8.43789474 C15.9924211,8.43789474 15.9924211,7.95873684 15.9924211,6.29305263 C15.9924211,6.21221053 15.9924211,6.13052632 15.9924211,6.04463158 C15.9932632,4.17515789 14.4176842,3.43326316 14.4176842,3.43326316 Z" id="Path"></path>
            </g>
        </g>
    </g>
</svg>